<svg width="846" height="1171" viewBox="0 0 846 1171" fill="none" xmlns="http://www.w3.org/2000/svg">
<path d="M141.514 381V3.51575H216.581V138.423H252.185V3.51575H327.253V381H252.185V209.845H216.581V381H141.514ZM442.735 384.432C412.565 384.432 389.472 375.352 373.458 357.193C357.586 338.89 349.651 312.509 349.651 278.05V98.7447C349.651 66.4298 357.515 41.9076 373.243 25.1782C389.115 8.44879 412.279 0.0840797 442.735 0.0840797C473.191 0.0840797 496.283 8.44879 512.012 25.1782C527.883 41.9076 535.819 66.4298 535.819 98.7447V278.05C535.819 312.509 527.812 338.89 511.797 357.193C495.926 375.352 472.905 384.432 442.735 384.432ZM443.378 314.94C454.817 314.94 460.537 303.859 460.537 281.696V97.4579C460.537 78.8696 454.96 69.5755 443.807 69.5755C431.224 69.5755 424.933 79.0841 424.933 98.1013V282.125C424.933 293.85 426.363 302.286 429.223 307.433C432.082 312.438 436.801 314.94 443.378 314.94ZM590.603 381V76.0099H545.777V3.51575H710.926V76.0099H666.1V381H590.603ZM80.9384 779.432C27.0325 779.432 0.0795135 740.825 0.0795135 663.613V500.823C0.0795135 430.33 30.9646 395.084 92.7347 395.084C118.186 395.084 137.704 400.232 151.288 410.527C164.871 420.679 174.237 435.549 179.385 455.138C184.532 474.728 187.106 498.606 187.106 526.775H113.325V493.316C113.325 485.166 112.181 478.374 109.893 472.94C107.748 467.364 103.173 464.575 96.1664 464.575C87.4442 464.575 81.6533 467.507 78.7936 473.369C76.0768 479.232 74.7184 485.666 74.7184 492.672V675.624C74.7184 685.776 76.0053 694.069 78.5791 700.503C81.2958 706.795 86.5148 709.94 94.2361 709.94C102.243 709.94 107.534 706.795 110.108 700.503C112.824 694.069 114.183 685.633 114.183 675.195V621.36H94.0216V556.158H186.248V776H156.006L143.137 744.257C129.983 767.707 109.25 779.432 80.9384 779.432ZM204.785 776V398.516H277.708V776H204.785ZM299.677 776V398.516H415.496C434.799 398.516 449.384 402.948 459.25 411.813C469.116 420.536 475.693 432.833 478.982 448.704C482.414 464.433 484.129 482.949 484.129 504.254C484.129 524.844 481.484 541.288 476.194 553.585C471.046 565.881 461.252 574.389 446.81 579.108C458.678 581.538 466.971 587.472 471.69 596.909C476.551 606.204 478.982 618.286 478.982 633.157V776H404.557V628.223C404.557 617.214 402.27 610.422 397.694 607.848C393.262 605.131 386.041 603.773 376.032 603.773V776H299.677ZM376.461 538.357H394.691C405.129 538.357 410.348 526.989 410.348 504.254C410.348 489.527 409.205 479.875 406.917 475.299C404.629 470.724 400.339 468.436 394.048 468.436H376.461V538.357ZM500.951 776V398.516H576.448V711.656H654.089V776H500.951ZM757.131 779.432C722.672 779.432 697.792 770.852 682.492 753.694C667.336 736.536 659.758 709.225 659.758 671.763V634.872H734.396V682.058C734.396 690.78 735.683 697.643 738.257 702.648C740.974 707.509 745.621 709.94 752.198 709.94C759.062 709.94 763.78 707.938 766.354 703.935C769.071 699.931 770.429 693.354 770.429 684.203C770.429 672.621 769.285 662.969 766.997 655.248C764.71 647.384 760.706 639.948 754.987 632.942C749.41 625.793 741.617 617.5 731.608 608.062L697.72 575.89C672.412 552.012 659.758 524.701 659.758 493.959C659.758 461.787 667.193 437.265 682.063 420.393C697.077 403.52 718.739 395.084 747.051 395.084C781.653 395.084 806.176 404.307 820.617 422.752C835.202 441.197 842.494 469.223 842.494 506.828H765.711V480.876C765.711 475.728 764.209 471.725 761.206 468.865C758.347 466.005 754.415 464.575 749.41 464.575C743.405 464.575 738.972 466.291 736.112 469.723C733.396 473.012 732.037 477.301 732.037 482.592C732.037 487.882 733.467 493.602 736.327 499.75C739.187 505.899 744.834 512.976 753.271 520.984L796.81 562.807C805.532 571.1 813.539 579.894 820.832 589.188C828.124 598.339 833.987 609.063 838.419 621.36C842.852 633.514 845.068 648.385 845.068 665.972C845.068 701.433 838.491 729.243 825.336 749.405C812.324 769.423 789.589 779.432 757.131 779.432ZM38.7318 1171V793.516H154.551C173.854 793.516 188.439 797.948 198.305 806.813C208.171 815.536 214.748 827.833 218.037 843.704C221.468 859.433 223.184 877.949 223.184 899.254C223.184 919.844 220.539 936.288 215.249 948.585C210.101 960.881 200.306 969.389 185.865 974.108C197.733 976.538 206.026 982.472 210.745 991.909C215.606 1001.2 218.037 1013.29 218.037 1028.16V1171H143.612V1023.22C143.612 1012.21 141.325 1005.42 136.749 1002.85C132.316 1000.13 125.096 998.773 115.087 998.773V1171H38.7318ZM115.516 933.357H133.746C144.184 933.357 149.403 921.989 149.403 899.254C149.403 884.527 148.259 874.875 145.972 870.299C143.684 865.724 139.394 863.436 133.103 863.436H115.516V933.357ZM240.006 1171V793.516H390.999V866.439H316.789V940.005H387.997V1011H316.789V1097.43H395.932V1171H240.006ZM402.673 1171L439.135 793.516H567.179L602.997 1171H531.575L526.213 1110.09H480.744L476.025 1171H402.673ZM486.106 1049.82H520.422L503.908 857.86H500.476L486.106 1049.82ZM618.103 1171V793.516H721.911C749.078 793.516 769.525 801.094 783.252 816.251C796.979 831.264 803.842 853.284 803.842 882.31V1059.04C803.842 1094.79 797.551 1122.38 784.968 1141.83C772.528 1161.28 750.651 1171 719.337 1171H618.103ZM694.028 1104.3H707.112C720.981 1104.3 727.916 1097.58 727.916 1084.14V889.388C727.916 876.805 726.2 868.727 722.769 865.152C719.48 861.434 712.688 859.575 702.393 859.575H694.028V1104.3Z" fill="black"/>
</svg>
